Coordinates

Units are S.I. units (second, meters, Newtons, ...)
If the header above contains a line with 'inDegrees', this indicates whether rotational values are in degrees (yes) or radians (no).

inDegrees=no
nColumns=21
nRows=27
DataType=double
version=3
OpenSimVersion=4.6-2026-03-31-d6972f9e6
endheader
time	/jointset/ground_pelvis/pelvis_tilt/value	/jointset/ground_pelvis/pelvis_list/value	/jointset/ground_pelvis/pelvis_rotation/value	/jointset/ground_pelvis/pelvis_tx/value	/jointset/ground_pelvis/pelvis_ty/value	/jointset/ground_pelvis/pelvis_tz/value	/jointset/hip_r/hip_flexion_r/value	/jointset/hip_r/hip_adduction_r/value	/jointset/hip_r/hip_rotation_r/value	/jointset/walker_knee_r/knee_angle_r/value	/jointset/patellofemoral_r/knee_angle_r_beta/value	/jointset/ankle_r/ankle_angle_r/value	/jointset/subtalar_r/subtalar_angle_r/value	/jointset/hip_l/hip_flexion_l/value	/jointset/hip_l/hip_adduction_l/value	/jointset/hip_l/hip_rotation_l/value	/jointset/walker_knee_l/knee_angle_l/value	/jointset/patellofemoral_l/knee_angle_l_beta/value	/jointset/ankle_l/ankle_angle_l/value	/jointset/subtalar_l/subtalar_angle_l/value
144.996	0.03899932599642653	0.05792874929191359	0.03287408444117783	0.9881704218415618	0.9996561475771708	-0.3063001234135513	0.3272613728652763	-0.07777648342048486	0.1292482970593359	1.669232177152264	1.669232177569528	-0.1750150436791371	-0.4261521103753561	0.1019837804364448	0.1589512712296553	0.131855978928262	0.595929203359994	0.5959292038027106	0.1449244527870444	-0.437913346127943
145	0.0393674414965581	0.05244284642329809	0.03137427050720071	0.9875740906825322	1.00119796814397	-0.3063329723201106	0.3469096075135796	-0.07023417143174369	0.1318456879874949	1.664417344308497	1.664417344661814	-0.1709763747908099	-0.4255135308846146	0.07807131248909002	0.1521154903027525	0.1348731099960183	0.5782770500300795	0.5782770504193572	0.1392651326780734	-0.4373149630835814
145.004	0.03957929154813708	0.04644367568920009	0.02942444638935263	0.9870611333475844	1.002857427928844	-0.306346473337851	0.3660223969710159	-0.06202853191585585	0.1340978315962164	1.657562267784966	1.657562268066691	-0.1677979000611311	-0.4256336662024908	0.05379509856728918	0.1445538182084254	0.1369120500606909	0.559405143330183	0.5594051436671587	0.1318787154176461	-0.4364810240098107
145.008	0.03955489795961539	0.03996789933935036	0.02707387479896187	0.986633636581688	1.004616204123256	-0.3063396312732709	0.3846208432358859	-0.05321825075986816	0.1359487609226076	1.648710479999139	1.648710480203878	-0.1654862063960404	-0.4265948992172353	0.0293674771068444	0.1363397225726349	0.1379335197939203	0.5395088363789788	0.5395088366707671	0.122723056706667	-0.4353626873959664
145.012	0.03922195161875331	0.03305806317527459	0.02437728280196053	0.9862933649227547	1.006458263505047	-0.3063115125394248	0.4027183788007102	-0.04387033437345628	0.1373538035832351	1.637899537334072	1.637899537459137	-0.1640374876337487	-0.4284606411273232	0.004994441338793603	0.127549739199886	0.1379156084655635	0.5187879111729824	0.5187879114324074	0.1117614616149066	-0.4338849359594884
145.016	0.03851887934260452	0.02576250848466927	0.02139368668292108	0.9860417665608134	1.008370063016286	-0.3062613542480569	0.4203177974160919	-0.03405978434605046	0.1382806641457667	1.625159947326225	1.625159947372501	-0.1634369587154219	-0.4312721446756865	-0.01912998115493	0.1182623854769929	0.1368533881528981	0.4974423299877892	0.4974423302325851	0.09896588077353533	-0.431950134179753
145.02	0.03739734516539082	0.01813513867795842	0.01818510850250237	0.9858799455652542	1.010340597832491	-0.306188667152215	0.4374090465041476	-0.02386903955709407	0.1387102131886942	1.61051463210844	1.610514632081321	-0.1636587378875056	-0.4350461704239469	-0.04282851920998576	0.1085571063123306	0.1347577625076225	0.4756682652711109	0.4756682655223476	0.08431997798069099	-0.429442709740494
145.024	0.03582394999666219	0.01023505773709571	0.01481529903537974	0.9858086008496318	1.012361290589739	-0.3060933314212129	0.4539680566448186	-0.01338724248286546	0.1386368916543849	1.593978968700504	1.593978968610293	-0.1646661666062534	-0.4397735019168781	-0.06594423576935565	0.09851331657265809	0.1316537197949645	0.4536546984552002	0.4536546987349066	0.06782197849308846	-0.4262347173347176
145.028	0.03378095587528714	0.00212609944331698	0.01134855144079491	0.9858279363696589	1.014425726654604	-0.3059756823401185	0.4699567928826743	-0.002709373723544473	0.138068672351094	1.575561403037866	1.57556140289923	-0.1664125173958878	-0.4454182765679868	-0.08834260682446689	0.08820958645976859	0.1275781584272948	0.431580829542963	0.4315808298711394	0.04948723073003973	-0.422191984373992
145.032	0.03126605385300709	-0.006123741036209579	0.007848621133304826	0.9859375517057879	1.016529260814929	-0.3058365792675146	0.4853244662239014	0.008064738858666634	0.1370265752433732	1.555264575634642	1.555264575465193	-0.1688420559856354	-0.4519181266284957	-0.1099121157883957	0.0777229885729951	0.1225774512615908	0.4096143792398886	0.4096143796312862	0.0293503901295231	-0.4171805755358185
145.036	0.02829132409455992	-0.01444296223958298	0.004377730815955569	0.9861363251964795	1.018668533942418	-0.3056774506729759	0.5000096832928196	0.01883154053046542	0.1355437671229629	1.533086862370643	1.533086862189158	-0.1718914329220414	-0.4591851055040801	-0.1305635921560991	0.0671286164762474	0.1167049445440598	0.38791072982101	0.3879107302822249	0.007467109645912284	-0.4110733987060685
145.04	0.02488155767246563	-0.02275729145234787	0.0009956335877590473	0.9864223023948575	1.02084093967633	-0.3055003091731462	0.5139432941655011	0.02948500559377863	0.1336642948440054	1.509024233110165	1.509024232935038	-0.1754913680455402	-0.467107305118733	-0.1502285662632938	0.0564992706440415	0.1100185907713316	0.3666128026529208	0.3666128031803844	-0.01608484075539552	-0.4037567995063662
145.044	0.02107212101965513	-0.03099049566266322	-0.002241283718160512	0.9867926022870884	1.023044080439295	-0.3053077325738721	0.5270516898709993	0.03991802712749353	0.131441503920066	1.483072333463205	1.483072333311493	-0.1795685821235758	-0.4755510503857174	-0.1688569335321675	0.04590529312633788	0.1025789087092922	0.345851536127256	0.3458515367065028	-0.04120506808475979	-0.3951369919721636
145.048	0.01690656165664429	-0.03906526337745445	-0.005280862813749662	0.9872433527932781	1.025275250915065	-0.305102809575328	0.5392602822025143	0.05002392642993459	0.1289361932127833	1.455228697149835	1.455228697036885	-0.1840479110013259	-0.484363567009016	-0.1864142472443808	0.03541452352662425	0.09444744898991565	0.3257467946541451	0.3257467952604365	-0.06777069802893533	-0.3851461712497785
145.052	0.01243414081346005	-0.04690415714421621	-0.00807600780513832	0.9877696649535287	1.02753098197481	-0.3048890505108215	0.5504969214086335	0.05969807255922316	0.1262145718536368	1.425495010139805	1.425495010079221	-0.1888544913087001	-0.4933759886011908	-0.2028789266408679	0.02509233337184544	0.08568587937911722	0.3064085465596396	0.3064085471597675	-0.09563716380589345	-0.3737481145939193
145.056	0.007707451175879032	-0.05443064064259524	-0.01058549557227492	0.9883656522161041	1.029806670725837	-0.3046702655537226	0.5606950494893616	0.06883960537074138	0.1233460968729336	1.393879364661573	1.393879364665238	-0.1939158716008499	-0.5024065478538882	-0.2182396082639248	0.01500168400978616	0.07635572605567031	0.2879381746832314	0.2879381752381611	-0.124639589191708	-0.3609430333581256
145.06	0.002780257119825795	-0.06157017747266435	-0.01277475235447429	0.989024497955298	1.032096315275417	-0.3044504163220628	0.5697964209970248	0.07735323534882527	0.1204012594165028	1.360398455662924	1.360398455740946	-0.1991639106274325	-0.5112638296277398	-0.232492826141916	0.005203159480385278	0.06651876088809013	0.2704297946221096	0.2704297950900693	-0.1545946853135769	-0.346771441560826
145.064	-0.002294331966540705	-0.06825138724678112	-0.01461656874025802	0.9897385705530625	1.034392365391041	-0.3042334499390072	0.5777532680086296	0.08515106735846475	0.1174493702643078	1.325079689409671	1.325079689570228	-0.2045363529662766	-0.519750009577396	-0.2456411597507988	-0.004245059669555935	0.056237986151256	0.2539714651659868	0.2539714655057022	-0.1853030741829567	-0.3313168346463904
145.068	-0.007465279212762801	-0.07440723343975565	-0.01609171317814693	0.9904995812204891	1.036685692996226	-0.3040231263038891	0.5845298401758624	0.092154376925835	0.1145563856475365	1.287963187360707	1.287963187609742	-0.2099780054423979	-0.5276640467140608	-0.2576919289690138	-0.01328730169230407	0.04557912148768398	0.2386461954275681	0.2386461956015137	-0.2165519581650314	-0.3147070012858885
145.072	-0.01268458985709533	-0.07997620903341063	-0.01718939756409628	0.9912987763901769	1.038965679769966	-0.303822849934744	0.5901033014194282	0.09829525842776769	0.1117828110234871	1.249103671471841	1.249103671812532	-0.2154414699679088	-0.5348048384175991	-0.2686564525422123	-0.02187059581990093	0.03461245297930176	0.2245326807212838	0.2245326806988888	-0.2481180736100652	-0.2971138311466288
145.076	-0.0179078375690354	-0.08490348805011207	-0.01790755529712742	0.9921271547370143	1.041220412136935	-0.3036355168558384	0.59446401555423	0.1035180774150808	0.1091817287220582	1.208572215091276	1.20857221552338	-0.2208874040735959	-0.5409743451257532	-0.278549818646781	-0.02994495590495281	0.0234148564432511	0.211705738619905	0.2117057383805148	-0.2797708776603068	-0.2787515271673146
145.08	-0.02309427778002687	-0.08914201994238578	-0.01825290836049412	0.9929756981222907	1.043436968609851	-0.3034633849524681	0.5976152787707024	0.1077806891142433	0.1067970110267764	1.166457837238539	1.166457837757844	-0.2262843100802816	-0.5459806995835096	-0.2873910765986992	-0.03746376267088657	0.01207176047782027	0.2002364513217877	0.2002364508570245	-0.3112759208613223	-0.259873177521977
145.084	-0.02820657661998524	-0.09265354293559142	-0.01824080848183025	0.9938356052270509	1.045601781849712	-0.3033079746143826	0.5995725502675614	0.1110553992325096	0.1046617830452223	1.122868907700688	1.12286890829884	-0.2316079244979478	-0.5496413883385722	-0.2952037616113992	-0.04438424294114612	0.0006787951447065057	0.1901920355321982	0.1901920348473402	-0.3423983736419906	-0.240765708143359
145.088	-0.03321021229686611	-0.09540947949546147	-0.01789483911405079	0.9946985162248581	1.047701053364	-0.3031700052623961	0.6003622652987013	0.1133296326747203	0.1027971893781107	1.077934329522444	1.077934330187247	-0.2368403190950626	-0.5517866147855364	-0.3020166299552509	-0.05066802389613231	-0.01065710738580881	0.1816354887770576	0.1816354878912259	-0.372906678404459	-0.2217433201155982
145.092	-0.0380726748706053	-0.0973916713380869	-0.01724617274184329	0.9955567169940467	1.049721192163383	-0.3030493713012767	0.6000203958534074	0.1146062715666798	0.1012115143916626	1.031804471313648	1.031804472029781	-0.241968783339694	-0.5522628425440078	-0.3078643952382923	-0.05628172984374357	-0.0218173529667918	0.1746251098643841	0.174625108809615	-0.4025762768384505	-0.2031395968758593
145.096	-0.04276261266619873	-0.09859292683728609	-0.01633269290038924	0.9964033126992092	1.051649247794691	-0.3029451584679069	0.5985909377594212	0.1149036511379362	0.09989971348318558	0.9846518074795952	0.9846518082296188	-0.2469845195384082	-0.5509364239123745	-0.3127882419550745	-0.06119759946600178	-0.03267222353040174	0.1692140067237546	0.169214005543209	-0.4311933559970006	-0.1852985312788257
145.1	-0.04724901908888743	-0.09901737263644474	-0.01519790614523662	0.9972323628372606	1.053473314715887	-0.3028556991439778	0.5961244168849018	0.1142552397511242	0.09884342258501344	0.9366711893223593	0.9366711900878377	-0.2518812303890071	-0.5476972656356225	-0.316835989469323	-0.06539411231527184	-0.04308242863856152	0.1654496703482796	0.1654496690937507	-0.4585585782427733	-0.1685647649673763
